<svg width="150" height="172.66" viewBox="0 0 503 579" fill="none" xmlns="http://www.w3.org/2000/svg">
<path d="M259.917 148.774L187.04 51.968H332.794L259.917 148.774Z" fill="#FD8061"/>
<path d="M233.903 137.735H239.364V230.53H233.903V137.735Z" fill="#45595A"/>
<path d="M210.397 227.799H263.049V233.271H210.397V227.799Z" fill="#45595A"/>
<path d="M39.4697 356.596C50.1377 356.596 55.4717 361.877 55.4717 372.429V492.359C55.4717 502.889 50.1377 508.149 39.4697 508.149H0.184387V356.596H39.4697ZM41.2477 374.588C41.2477 372.079 40.8455 370.428 40.0624 369.635C39.2686 368.851 37.6282 368.449 35.1517 368.449H14.1967V496.296H35.1517C37.7764 496.296 39.438 495.904 40.147 495.111C40.8773 494.327 41.2477 492.676 41.2477 490.158V374.588Z" fill="#45595A"/>
<path d="M90.2559 438.215V496.084H124.25V508.149H76.2435V356.596H122.853V368.661H90.2559V426.361H116.926V438.215H90.2559Z" fill="#45595A"/>
<path d="M215.302 407.565H201.078V374.588C201.078 372.079 200.707 370.428 199.977 369.635C199.268 368.851 197.659 368.449 195.151 368.449H184.271C181.784 368.449 180.144 368.851 179.361 369.635C178.567 370.428 178.175 372.079 178.175 374.588V490.369C178.175 492.888 178.567 494.539 179.361 495.322C180.144 496.116 181.784 496.508 184.271 496.508H195.151C197.659 496.508 199.268 496.116 199.977 495.322C200.707 494.539 201.078 492.888 201.078 490.369V457.561H215.302V492.528C215.302 503.09 209.968 508.361 199.3 508.361H179.953C169.391 508.361 164.121 503.09 164.121 492.528V372.429C164.121 361.877 169.391 356.596 179.953 356.596H199.3C209.968 356.596 215.302 361.877 215.302 372.429V407.565Z" fill="#45595A"/>
<path d="M269.221 356.596C279.889 356.596 285.223 361.877 285.223 372.429V492.359C285.223 502.889 279.889 508.149 269.221 508.149H248.901C238.338 508.149 233.068 502.889 233.068 492.359V372.429C233.068 361.877 238.338 356.596 248.901 356.596H269.221ZM271.21 374.799C271.21 372.291 270.84 370.64 270.11 369.846C269.4 369.063 267.792 368.661 265.284 368.661H253.049C250.53 368.661 248.879 369.031 248.096 369.762C247.302 370.471 246.911 372.153 246.911 374.799V490.158C246.911 492.676 247.302 494.296 248.096 495.026C248.879 495.735 250.53 496.084 253.049 496.084H265.284C267.792 496.084 269.4 495.735 270.11 495.026C270.84 494.296 271.21 492.676 271.21 490.158V374.799Z" fill="#45595A"/>
<path d="M343.709 356.596H357.552V492.359C357.552 502.889 352.218 508.149 341.55 508.149H321.187C310.657 508.149 305.397 502.889 305.397 492.359V356.596H319.198V490.158C319.198 492.676 319.589 494.296 320.383 495.026C321.166 495.735 322.817 496.084 325.336 496.084H337.57C340.078 496.084 341.729 495.735 342.523 495.026C343.306 494.296 343.709 492.676 343.709 490.158V356.596Z" fill="#45595A"/>
<path d="M417.972 356.596C428.64 356.596 433.974 361.877 433.974 372.429V492.359C433.974 502.889 428.64 508.149 417.972 508.149H378.686V356.596H417.972ZM419.75 374.588C419.75 372.079 419.348 370.428 418.564 369.635C417.771 368.851 416.13 368.449 413.654 368.449H392.699V496.296H413.654C416.278 496.296 417.94 495.904 418.649 495.111C419.379 494.327 419.75 492.676 419.75 490.158V374.588Z" fill="#45595A"/>
<path d="M468.758 438.215V496.084H502.752V508.149H454.746V356.596H501.355V368.661H468.758V426.361H495.428V438.215H468.758Z" fill="#45595A"/>
<path d="M50.5817 301.666H54.7304V327.278H70.5631V330.918H50.5817V301.666Z" fill="#45595A"/>
<path d="M122.374 323.595H106.837L103.62 330.918H99.302L112.552 301.666H116.701L129.951 330.918H125.591L122.374 323.595ZM120.892 320.25L114.584 305.942L108.277 320.25H120.892Z" fill="#45595A"/>
<path d="M202.264 301.666H206.412V327.278H222.245V330.918H202.264V301.666Z" fill="#45595A"/>
<path d="M276.638 327.278V330.918H255.429V301.666H276.045V305.307H259.578V314.281H274.267V317.837H259.578V327.278H276.638Z" fill="#45595A"/>
<path d="M337.17 301.666L324.343 330.918H320.194L307.325 301.666H311.854L322.353 325.711L332.979 301.666H337.17Z" fill="#45595A"/>
<path d="M391.072 327.278V330.918H369.863V301.666H390.48V305.307H374.012V314.281H388.702V317.837H374.012V327.278H391.072ZM382.775 293.877H387.897L380.87 299.295H377.102L382.775 293.877Z" fill="#45595A"/>
<path d="M447.415 327.278V330.918H426.206V301.666H446.823V305.307H430.355V314.281H445.045V317.837H430.355V327.278H447.415Z" fill="#45595A"/>
<path d="M159.245 574.338C160.705 574.338 162.06 573.989 163.309 573.28C164.547 572.581 165.595 571.65 166.441 570.486L169.193 573.11C167.976 574.55 166.505 575.724 164.79 576.624C163.065 577.534 161.213 577.979 159.245 577.979C157.435 577.979 155.731 577.608 154.122 576.878C152.514 576.148 151.117 575.163 149.931 573.915C148.746 572.676 147.793 571.226 147.095 569.554C146.418 567.893 146.079 566.125 146.079 564.263C146.079 562.379 146.418 560.611 147.095 558.971C147.793 557.309 148.746 555.859 149.931 554.611C151.117 553.372 152.514 552.388 154.122 551.647C155.731 550.917 157.435 550.547 159.245 550.547C160.938 550.547 162.525 550.885 164.028 551.563C165.521 552.219 166.843 553.076 168.008 554.145L165.679 557.151C164.854 556.283 163.901 555.563 162.801 554.992C161.7 554.431 160.515 554.145 159.245 554.145C157.975 554.145 156.768 554.42 155.646 554.949C154.514 555.489 153.54 556.219 152.725 557.151C151.9 558.082 151.244 559.161 150.736 560.368C150.249 561.585 150.016 562.887 150.016 564.263C150.016 565.649 150.249 566.951 150.736 568.157C151.244 569.374 151.9 570.443 152.725 571.375C153.54 572.285 154.514 573.004 155.646 573.534C156.768 574.073 157.975 574.338 159.245 574.338Z" fill="#45595A"/>
<path d="M187.227 578.063C185.957 578.063 184.772 577.82 183.671 577.344C182.592 576.836 181.65 576.158 180.835 575.312C180.009 574.444 179.364 573.438 178.888 572.306C178.401 571.152 178.168 569.914 178.168 568.581C178.168 567.289 178.401 566.062 178.888 564.898C179.364 563.744 180.009 562.739 180.835 561.892C181.65 561.045 182.592 560.389 183.671 559.902C184.772 559.394 185.957 559.14 187.227 559.14C188.434 559.14 189.598 559.394 190.699 559.902C191.82 560.389 192.794 561.045 193.62 561.892C194.435 562.739 195.07 563.744 195.525 564.898C196.001 566.062 196.244 567.289 196.244 568.581C196.244 569.914 196.001 571.152 195.525 572.306C195.07 573.438 194.435 574.444 193.62 575.312C192.794 576.158 191.82 576.836 190.699 577.344C189.598 577.82 188.434 578.063 187.227 578.063ZM187.227 562.4C186.486 562.4 185.799 562.569 185.153 562.908C184.497 563.225 183.925 563.659 183.417 564.22C182.93 564.792 182.549 565.448 182.274 566.21C181.989 566.951 181.851 567.734 181.851 568.581C181.851 569.459 181.989 570.274 182.274 571.036C182.549 571.777 182.93 572.422 183.417 572.983C183.925 573.555 184.497 573.999 185.153 574.338C185.799 574.655 186.486 574.804 187.227 574.804C187.958 574.804 188.645 574.655 189.302 574.338C189.947 573.999 190.508 573.555 190.995 572.983C191.471 572.422 191.842 571.777 192.096 571.036C192.371 570.274 192.519 569.459 192.519 568.581C192.519 567.734 192.371 566.951 192.096 566.21C191.842 565.448 191.471 564.792 190.995 564.22C190.508 563.659 189.947 563.225 189.302 562.908C188.645 562.569 187.958 562.4 187.227 562.4Z" fill="#45595A"/>
<path d="M214.292 578.063C213.022 578.063 211.837 577.82 210.736 577.344C209.657 576.836 208.715 576.158 207.9 575.312C207.075 574.444 206.429 573.438 205.953 572.306C205.466 571.152 205.233 569.914 205.233 568.581C205.233 567.289 205.466 566.062 205.953 564.898C206.429 563.744 207.075 562.739 207.9 561.892C208.715 561.045 209.657 560.389 210.736 559.902C211.837 559.394 213.022 559.14 214.292 559.14C215.732 559.14 217.055 559.468 218.272 560.114C219.51 560.77 220.558 561.659 221.404 562.781L218.822 564.771C218.335 564.072 217.7 563.501 216.917 563.077C216.155 562.654 215.33 562.442 214.462 562.442C213.7 562.442 212.98 562.601 212.303 562.908C211.625 563.225 211.033 563.659 210.525 564.22C210.038 564.792 209.646 565.448 209.339 566.21C209.054 566.951 208.916 567.734 208.916 568.581C208.916 569.459 209.054 570.274 209.339 571.036C209.646 571.777 210.038 572.422 210.525 572.983C211.033 573.555 211.625 573.999 212.303 574.338C212.98 574.655 213.7 574.804 214.462 574.804C215.446 574.804 216.335 574.55 217.129 574.042C217.944 573.512 218.61 572.803 219.118 571.925L221.574 574.084C220.78 575.301 219.732 576.275 218.441 577.005C217.171 577.703 215.785 578.063 214.292 578.063Z" fill="#45595A"/>
<path d="M235.776 577.598H232.093V550.081H235.776V566.972L242.846 559.564H247.375L240.433 566.803L247.883 577.598H243.735L238.062 569.3L235.776 571.713V577.598Z" fill="#45595A"/>
<path d="M267.333 577.555C266.317 577.915 265.301 578.127 264.285 578.19C263.29 578.275 262.39 578.127 261.575 577.767C260.782 577.407 260.136 576.772 259.628 575.862C259.12 574.931 258.866 573.639 258.866 571.967V562.823H256.241V560.283L258.866 559.564V554.738H262.507V559.564H267.417V562.823H262.507V572.56C262.507 573.153 262.57 573.639 262.718 573.999C262.856 574.338 263.078 574.592 263.396 574.761C263.734 574.931 264.168 575.015 264.708 575.015C265.237 575.015 265.872 574.973 266.613 574.888L267.333 577.555Z" fill="#45595A"/>
<path d="M294.329 559.564V577.598H291.239L290.688 575.523C290.032 576.349 289.217 576.984 288.233 577.428C287.27 577.852 286.286 578.063 285.27 578.063C284.021 578.063 282.857 577.82 281.756 577.344C280.655 576.836 279.692 576.158 278.877 575.312C278.083 574.444 277.448 573.438 276.972 572.306C276.485 571.152 276.253 569.914 276.253 568.581C276.253 567.289 276.485 566.062 276.972 564.898C277.448 563.744 278.083 562.739 278.877 561.892C279.692 561.045 280.655 560.389 281.756 559.902C282.857 559.394 284.021 559.14 285.27 559.14C286.286 559.14 287.259 559.341 288.191 559.733C289.122 560.103 289.947 560.707 290.688 561.553L291.239 559.564H294.329ZM285.27 574.804C286 574.804 286.688 574.655 287.344 574.338C287.989 573.999 288.55 573.555 289.037 572.983C289.513 572.422 289.894 571.777 290.18 571.036C290.455 570.274 290.604 569.459 290.604 568.581C290.604 567.734 290.455 566.951 290.18 566.21C289.894 565.448 289.513 564.792 289.037 564.22C288.55 563.659 287.989 563.204 287.344 562.866C286.688 562.527 286 562.358 285.27 562.358C284.529 562.358 283.841 562.527 283.195 562.866C282.539 563.204 281.978 563.659 281.502 564.22C281.015 564.792 280.634 565.448 280.359 566.21C280.105 566.951 279.978 567.734 279.978 568.581C279.978 569.459 280.105 570.274 280.359 571.036C280.634 571.777 281.015 572.422 281.502 572.983C281.978 573.555 282.539 573.999 283.195 574.338C283.841 574.655 284.529 574.804 285.27 574.804Z" fill="#45595A"/>
<path d="M308.663 577.598H304.98V559.564H308.621L308.663 577.598ZM306.801 555.627C306.145 555.627 305.594 555.404 305.15 554.949C304.695 554.473 304.472 553.912 304.472 553.256C304.472 552.61 304.695 552.06 305.15 551.605C305.594 551.16 306.145 550.928 306.801 550.928C307.446 550.928 307.997 551.16 308.452 551.605C308.896 552.06 309.129 552.61 309.129 553.256C309.129 553.912 308.896 554.473 308.452 554.949C307.997 555.404 307.446 555.627 306.801 555.627Z" fill="#45595A"/>
<path d="M323.404 550.081V577.598H319.721V550.081H323.404Z" fill="#45595A"/>
<path d="M342.71 573.83C342.932 573.639 343.134 573.407 343.303 573.153C343.493 572.899 343.599 572.623 343.599 572.306C343.599 571.883 343.44 571.544 343.134 571.29C342.848 571.015 342.499 570.771 342.075 570.57C341.673 570.38 341.25 570.232 340.805 570.147C340.35 570.041 339.969 569.956 339.662 569.893C338.837 569.671 338.064 569.417 337.334 569.131C336.593 568.856 335.958 568.517 335.429 568.115C334.889 567.692 334.466 567.205 334.159 566.633C333.841 566.072 333.693 565.395 333.693 564.601C333.693 563.871 333.863 563.194 334.201 562.569C334.561 561.924 335.027 561.363 335.598 560.876C336.191 560.368 336.879 559.976 337.673 559.691C338.487 559.415 339.334 559.267 340.213 559.267C340.975 559.267 341.705 559.384 342.414 559.606C343.112 559.839 343.747 560.146 344.319 560.537C344.88 560.908 345.356 561.373 345.758 561.934C346.15 562.474 346.404 563.077 346.52 563.755L343.261 564.559C343.091 563.966 342.753 563.479 342.245 563.077C341.758 562.654 341.08 562.442 340.213 562.442C339.895 562.442 339.578 562.485 339.239 562.569C338.921 562.654 338.625 562.802 338.35 562.993C338.064 563.162 337.821 563.374 337.63 563.628C337.461 563.882 337.376 564.167 337.376 564.474C337.376 564.845 337.471 565.152 337.673 565.406C337.895 565.66 338.149 565.871 338.435 566.041C338.741 566.189 339.07 566.316 339.408 566.422C339.768 566.506 340.107 566.591 340.424 566.676C341.747 566.993 342.848 567.342 343.726 567.734C344.594 568.104 345.303 568.517 345.843 568.962C346.372 569.417 346.742 569.914 346.943 570.443C347.166 570.983 347.282 571.607 347.282 572.306C347.282 573.1 347.092 573.851 346.732 574.55C346.361 575.259 345.853 575.862 345.208 576.37C344.583 576.878 343.821 577.291 342.922 577.598C342.043 577.873 341.08 578.021 340.043 578.021C338.487 578.021 337.101 577.64 335.895 576.878C334.677 576.116 333.841 575.089 333.397 573.788L336.487 572.391C336.911 573.269 337.429 573.872 338.054 574.211C338.667 574.528 339.387 574.677 340.213 574.677C341.197 574.677 342.033 574.401 342.71 573.83Z" fill="#45595A"/>
<circle cx="143.691" cy="30.2933" r="29.8027" fill="#EFCA08"/>
<path d="M187.04 38.4213C187.04 21.9618 173.697 8.61865 157.237 8.61865C140.778 8.61865 127.435 21.9618 127.435 38.4213C127.435 54.8809 140.778 68.224 157.237 68.224C164.944 68.224 171.968 65.2985 177.259 60.4974" stroke="#45595A" stroke-width="5.46"/>
<path d="M236.633 142.297L158.296 38.1991H314.971L236.633 142.297ZM169.218 43.6707L236.633 133.185L304.039 43.6707H169.218Z" fill="#45595A"/>
</svg>
